<?xml version="1.0" encoding="utf-8"?>
<!-- Generator: Adobe Illustrator 21.1.0, SVG Export Plug-In . SVG Version: 6.00 Build 0)  -->
<svg version="1.1" id="Layer_1" xmlns="http://www.w3.org/2000/svg" xmlns:xlink="http://www.w3.org/1999/xlink" x="0px" y="0px"
	 viewBox="0 0 32 32" enable-background="new 0 0 32 32" xml:space="preserve">
<path id="иконка_доставка" fill="#F50049" d="M30.3,7.2h-4.4c0.7-0.8,1.2-1.9,1.2-3c0,0,0-0.2,0-0.2
	c-0.1-1.4-0.8-2.7-2.1-3.4c-1.3-0.7-2.8-0.7-4.1,0l-2,1.2c-1.2,0.7-2.2,1.8-2.9,3.1c-0.6-1.3-1.6-2.4-2.9-3.1l-2-1.2
	c-1.3-0.7-2.8-0.7-4.1,0C5.8,1.2,5,2.5,5,4C5,4,5,4.2,5,4.2c0,1.1,0.4,2.2,1.2,3H1.7C0.8,7.2,0,8,0,8.9V13c0,1,0.8,1.7,1.7,1.7h0.8
	v15.5c0,1,0.8,1.7,1.7,1.7h23.6c0.9,0,1.7-0.8,1.7-1.7V14.8h0.8c0.9,0,1.7-0.8,1.7-1.7V8.9C32,8,31.2,7.2,30.3,7.2z M19.6,2.9l2-1.1
	c0.8-0.5,1.8-0.5,2.7,0c0.8,0.4,1.3,1.3,1.3,2.2c0,0,0,0.2,0,0.2c0,1.7-1.4,3-3,3h-5.9C17,5.4,18,3.8,19.6,2.9z M6.4,4
	c0-0.9,0.5-1.8,1.3-2.2c0.8-0.5,1.8-0.5,2.7,0l2,1.1C14,3.8,15,5.4,15.2,7.2H9.4c-1.6,0-3-1.3-3-3C6.4,4.2,6.4,4,6.4,4z M12.8,16.9
	H9.9c-0.4,0-0.7,0.3-0.7,0.7c0,0.4,0.3,0.7,0.7,0.7c0,0,0,0,0.1,0h2.9v12.2H4.2c-0.2,0-0.3-0.1-0.3-0.3c0,0,0,0,0,0V14.8h8.9V16.9
	L12.8,16.9z M12.8,13.3H1.7c-0.2,0-0.3-0.1-0.3-0.3c0,0,0,0,0,0V8.9c0-0.2,0.1-0.3,0.3-0.3c0,0,0,0,0,0h11.1V13.3z M17.8,30.6h-3.6
	V8.6h3.6L17.8,30.6L17.8,30.6z M28.1,30.3c0,0.2-0.1,0.3-0.3,0.3c0,0,0,0,0,0h-8.6V18.4h2.7c0.4,0,0.7-0.3,0.7-0.7
	c0-0.4-0.3-0.7-0.7-0.7c0,0,0,0-0.1,0h-2.7v-2.2h8.9L28.1,30.3L28.1,30.3L28.1,30.3z M30.6,13c0,0.2-0.1,0.3-0.3,0.3c0,0,0,0,0,0
	H19.2V8.6h11.1c0.2,0,0.3,0.1,0.3,0.3c0,0,0,0,0,0L30.6,13L30.6,13L30.6,13z M25.3,18.4L25.3,18.4c0.5,0,0.8-0.3,0.8-0.7
	c0-0.4-0.3-0.7-0.7-0.7c0,0,0,0-0.1,0h-0.1c-0.4,0-0.7,0.3-0.7,0.7C24.6,18,24.9,18.4,25.3,18.4C25.3,18.4,25.3,18.4,25.3,18.4
	L25.3,18.4z M6.4,18.4L6.4,18.4c0.5,0,0.8-0.3,0.8-0.7c0-0.4-0.3-0.7-0.7-0.7c0,0,0,0-0.1,0H6.4c-0.4,0-0.7,0.3-0.7,0.7
	C5.7,18,6,18.4,6.4,18.4C6.4,18.4,6.4,18.4,6.4,18.4z"/>
</svg>
