<svg xmlns="http://www.w3.org/2000/svg" xmlns:xlink="http://www.w3.org/1999/xlink" x="0px" y="0px"
	 viewBox="0 0 36 36">
<g>
	<circle cx="18" cy="18" r="18" fill="#ffffff"/>
</g>
<g>
	<path d="M18,12.2c-3.1,0-5.7,2.5-5.7,5.7s2.5,5.7,5.7,5.7s5.7-2.6,5.7-5.7S21.2,12.2,18,12.2z M18,21.6
		c-2,0-3.6-1.7-3.6-3.6c0-2,1.7-3.6,3.6-3.6s3.6,1.7,3.6,3.6C21.7,19.9,20,21.6,18,21.6z" fill="#f50049"/>
	<circle cx="24" cy="12.1" r="1.3" fill="#f50049"/>
	<path d="M27.3,8.8C26.1,7.6,24.5,7,22.6,7h-9.1C9.6,7,7,9.6,7,13.4v9.1c0,1.9,0.6,3.5,1.9,4.8c1.2,1.1,2.8,1.7,4.6,1.7
		h9.1c1.9,0,3.5-0.6,4.7-1.7c1.2-1.1,1.8-2.8,1.8-4.7v-9.2C29,11.5,28.4,10,27.3,8.8z M27.1,22.6c0,1.4-0.5,2.5-1.3,3.2
		c-0.8,0.7-1.9,1.1-3.2,1.1h-9.1c-1.3,0-2.4-0.4-3.2-1.1c-0.8-0.8-1.2-1.9-1.2-3.3v-9.1c0-1.3,0.4-2.4,1.2-3.2
		c0.7-0.7,1.9-1.1,3.2-1.1h9.1c1.3,0,2.4,0.4,3.2,1.2c0.7,0.8,1.2,1.9,1.2,3.2L27.1,22.6L27.1,22.6z" fill="#f50049"/>
</g>
</svg>
