<svg xmlns="http://www.w3.org/2000/svg" xmlns:xlink="http://www.w3.org/1999/xlink" x="0px" y="0px" viewBox="0 0 23 23">
<g>
	<path d="M11.4,5.4c-3.2,0-5.9,2.6-5.9,5.9s2.6,5.9,5.9,5.9s5.9-2.7,5.9-5.9S14.8,5.4,11.4,5.4z M11.4,15.2
		c-2.1,0-3.7-1.8-3.7-3.7c0-2.1,1.8-3.7,3.7-3.7s3.7,1.8,3.7,3.7C15.3,13.4,13.5,15.2,11.4,15.2z"/>
	<circle cx="17.7" cy="5.3" r="1.4"/>
	<path d="M21.1,1.9C19.9,0.6,18.2,0,16.2,0H6.8C2.7,0,0,2.7,0,6.7v9.5c0,2,0.6,3.6,2,5c1.2,1.1,2.9,1.8,4.8,1.8h9.5
		c2,0,3.6-0.6,4.9-1.8c1.2-1.1,1.9-2.9,1.9-4.9V6.7C22.9,4.7,22.3,3.1,21.1,1.9z M20.9,16.2c0,1.5-0.5,2.6-1.4,3.3
		c-0.8,0.7-2,1.1-3.3,1.1H6.8c-1.4,0-2.5-0.4-3.3-1.1c-0.8-0.8-1.2-2-1.2-3.4V6.7c0-1.4,0.4-2.5,1.2-3.3c0.7-0.7,2-1.1,3.3-1.1h9.5
		c1.4,0,2.5,0.4,3.3,1.2c0.7,0.8,1.2,2,1.2,3.3L20.9,16.2L20.9,16.2z"/>
</g>
</svg>
