<svg xmlns="http://www.w3.org/2000/svg" xmlns:xlink="http://www.w3.org/1999/xlink" x="0px" y="0px"
	 viewBox="0 0 63 63">
<g>
	<circle cx="31.5" cy="31.5" r="31.5" fill="#ffffff"/>
</g>
<g>
	<path d="M31.5,21.4c-5.4,0-10,4.4-10,10s4.4,10,10,10s10-4.5,10-10S37.1,21.4,31.5,21.4z M31.5,37.8
		c-3.5,0-6.3-3-6.3-6.3c0-3.5,3-6.3,6.3-6.3s6.3,3,6.3,6.3C38,34.8,35,37.8,31.5,37.8z" fill="#f50049"/>
	<circle cx="42" cy="21.2" r="2.3" fill="#f50049"/>
	<path d="M47.8,15.4c-2.1-2.1-4.9-3.2-8.2-3.2H23.6c-6.8,0-11.4,4.6-11.4,11.2v15.9c0,3.3,1.1,6.1,3.3,8.4
		c2.1,1.9,4.9,3,8.1,3h15.9c3.3,0,6.1-1,8.2-3c2.1-1.9,3.1-4.9,3.1-8.2V23.4C50.8,20.1,49.7,17.5,47.8,15.4z M47.4,39.5
		c0,2.5-0.9,4.4-2.3,5.6s-3.3,1.9-5.6,1.9H23.6c-2.3,0-4.2-0.7-5.6-1.9c-1.4-1.4-2.1-3.3-2.1-5.8V23.5c0-2.3,0.7-4.2,2.1-5.6
		c1.2-1.2,3.3-1.9,5.6-1.9h15.9c2.3,0,4.2,0.7,5.6,2.1c1.2,1.4,2.1,3.3,2.1,5.6L47.4,39.5L47.4,39.5z" fill="#f50049"/>
</g>
</svg>
