<?xml version="1.0" encoding="utf-8"?>
<!-- Generator: Adobe Illustrator 21.1.0, SVG Export Plug-In . SVG Version: 6.00 Build 0)  -->
<svg version="1.1" id="Layer_1" xmlns="http://www.w3.org/2000/svg" xmlns:xlink="http://www.w3.org/1999/xlink" x="0px" y="0px"
	 viewBox="0 0 185 110" style="enable-background:new 0 0 185 110;" xml:space="preserve">
<style type="text/css">
	.st0{fill:none;stroke:#F50049;stroke-width:4.6362;stroke-miterlimit:10;}
	.st1{fill:#F50049;}
	.st2{fill:none;stroke:#FE0249;stroke-width:4.6362;stroke-linecap:round;stroke-miterlimit:10;}
	.st3{fill:#FE0249;}
	.st4{fill:#FFFFFF;}
	.st5{fill:none;stroke:#F50049;stroke-width:4.5247;stroke-linejoin:round;stroke-miterlimit:10;}
	.st6{fill:none;stroke:#F50049;stroke-width:3.0601;stroke-linejoin:round;stroke-miterlimit:10;}
	.st7{fill:none;stroke:#F50049;stroke-width:3.0914;stroke-linecap:round;stroke-miterlimit:10;}
	.st8{fill:none;stroke:#F50049;stroke-width:4.6362;stroke-linecap:round;stroke-miterlimit:10;}
	.st9{fill:#F50049;stroke:#F50049;stroke-width:1.5961;stroke-miterlimit:10;}
</style>
<g>
	<path class="st0" d="M57,30.8c11.8-6.2,25.2-9.6,39.4-9.6c47.1,0,85.3,38.2,85.3,85.3H11.1c0-15.5,4.1-30,11.3-42.5"/>
	<rect x="93.7" y="9.1" class="st1" width="5.6" height="13.9"/>
	<circle class="st1" cx="96.4" cy="9.6" r="6"/>
	<path class="st2" d="M137.6,43.6c0,0,25,10.9,31.8,45.1"/>
	<circle class="st3" cx="128" cy="38.8" r="2.8"/>
	<circle class="st4" cx="96.4" cy="9.6" r="2.3"/>
	<rect x="60.7" y="63.8" class="st5" width="71.6" height="42.2"/>
	<g>
		<path class="st5" d="M93.5,46.4c5.7,6.9,5,16.9,5,16.9s-10-1.2-15.7-8.1s-5-16.9-5-16.9S87.7,39.5,93.5,46.4z"/>
		<path class="st6" d="M110.3,58.6c-4.4,4.1-11.2,4-11.2,4s0.4-6.8,4.9-10.9s11.2-4,11.2-4S114.8,54.5,110.3,58.6z"/>
	</g>
	<path class="st7" d="M97.8,81"/>
	<path class="st8" d="M60.8,79.4c0,0,2.7,11.8,12.9,12.7S88.6,84.7,91.3,81c2.8-3.7,9.3-3.7,12.1,0c2.8,3.7,0.9,4.6,5.6,9.3
		c4.6,4.6,10.2,3.7,13.9,2.8c3.7-0.9,9.4-8.7,9.4-8.7"/>
	<circle class="st8" cx="30.6" cy="37.8" r="27.4"/>
	<g>
		<path class="st9" d="M17,47.7l0.2-2.3l6.9-9.2c0.4-0.5,0.7-1.1,0.9-1.6c0.2-0.6,0.3-1.1,0.3-1.6v0c0-0.8-0.2-1.4-0.7-1.9
			c-0.5-0.4-1.1-0.7-2-0.7c-0.8,0-1.4,0.2-1.9,0.7c-0.5,0.5-0.8,1.2-0.9,2v0H17v0c0.2-1.7,0.9-3,1.9-4c1-0.9,2.3-1.4,3.8-1.4
			c1.8,0,3.1,0.5,4.1,1.4c1,0.9,1.4,2.2,1.4,3.8v0c0,0.7-0.1,1.4-0.4,2.2c-0.3,0.8-0.7,1.5-1.2,2.2l-5.7,7.7h7.4v2.6l-11,0.2
			L17,47.7z"/>
		<path class="st9" d="M31.6,44.8v-2.4l6.6-14.3H41l-6.4,14.1h9.7v2.6H31.6z M40.1,47.8V36.2h2.7v11.6H40.1z"/>
	</g>
</g>
</svg>
