<svg xmlns="http://www.w3.org/2000/svg" xmlns:xlink="http://www.w3.org/1999/xlink" x="0px" y="0px"
	 viewBox="0 0 36 36">
<g>
	<circle cx="18" cy="18" r="18" fill="#ffffff"/>
</g>
<path d="M29,11.1c-0.8,0.4-1.7,0.6-2.6,0.7c0.9-0.6,1.6-1.5,2-2.5c-0.9,0.5-1.9,0.9-2.9,1.1c-0.8-0.9-2-1.5-3.3-1.5
	c-2.5,0-4.5,2-4.5,4.6c0,0.4,0,0.7,0.1,1.1c-3.8-0.2-7.1-2-9.3-4.8c-0.4,0.7-0.6,1.5-0.6,2.3c0,1.6,0.8,3,2,3.8
	c-0.7,0-1.5-0.2-2.1-0.6v0c0,2.2,1.5,4.1,3.6,4.5c-0.4,0.1-0.8,0.2-1.2,0.2c-0.3,0-0.6,0-0.8-0.1c0.6,1.8,2.2,3.1,4.2,3.2
	c-1.5,1.2-3.5,1.9-5.6,1.9c-0.4,0-0.7,0-1.1,0c2,1.3,4.3,2.1,6.9,2.1c8.3,0,12.9-7,12.9-13c0-0.2,0-0.4,0-0.6
	C27.6,12.8,28.4,12,29,11.1z" fill="#f50049"/>
</svg>
