<svg xmlns="http://www.w3.org/2000/svg" xmlns:xlink="http://www.w3.org/1999/xlink" x="0px" y="0px"
	 viewBox="0 0 63 63">
<g>
	<circle class="st0" cx="31.5" cy="31.5" r="31.5" fill="#ffffff"/>
</g>
<path class="st1" d="M50.9,20.3h-6.8c-0.5,0-1.1,0.3-1.4,0.9c0,0-2.8,5.1-3.7,6.8c-2.3,4.7-3.9,3.1-3.9,1.1v-7.4
	c0-1.2-1-2.3-2.3-2.3h-5.1c-1.4-0.4-2.8,0.3-3.7,1.6c0,0,2.6-0.4,2.6,3.1c0,0.9,0,3.5,0,5.6c0,0.9-0.7,1.6-1.4,1.6
	c-0.4,0-0.9-0.2-1.2-0.5c-2.1-3-3.8-6.3-5.3-9.6c0-0.5-0.5-0.9-1.2-0.9c-1.4,0-4.4,0-6.1,0c-0.5,0-1,0.5-1,1.1c0,0.2,0,0.2,0,0.3
	c1.9,5.4,10,22,19.2,22h3.9c0.9,0,1.6-0.7,1.6-1.6v-2.4c0-0.9,0.7-1.6,1.6-1.6c0.4,0,0.7,0.2,1,0.4l4.7,4.5c0.4,0.4,1.1,0.7,1.6,0.7
	h6.1c3,0,3-2.1,1.4-3.7c-1-1.2-5.3-5.6-5.3-5.6c-0.9-0.9-0.9-1.9-0.4-2.8c1.4-1.8,3.5-4.7,4.4-5.9C51.6,24,53.9,20.3,50.9,20.3z" fill="#f50049"/>
</svg>
