<svg xmlns="http://www.w3.org/2000/svg" xmlns:xlink="http://www.w3.org/1999/xlink" x="0px" y="0px" viewBox="0 0 23 23">
<path d="M22,5.4h-3.7c-0.3,0-0.6,0.2-0.8,0.5c0,0-1.5,2.8-2,3.7c-1.2,2.6-2.1,1.7-2.1,0.6v-4c0-0.7-0.6-1.2-1.2-1.2H9.4
	c-0.8-0.2-1.5,0.2-2,0.9c0,0,1.4-0.2,1.4,1.7c0,0.5,0,1.9,0,3.1c0,0.5-0.4,0.9-0.8,0.9c-0.2,0-0.5-0.1-0.7-0.3
	C6.3,9.5,5.3,7.7,4.6,5.8c0-0.3-0.3-0.5-0.7-0.5c-0.8,0-2.4,0-3.3,0C0.3,5.4,0,5.7,0,5.9C0,6,0,6,0,6.1c1,3,5.4,12,10.5,12h2.1
	c0.5,0,0.9-0.4,0.9-0.9V16c0-0.5,0.4-0.9,0.9-0.9c0.2,0,0.4,0.1,0.6,0.2l2.6,2.5c0.2,0.2,0.6,0.4,0.9,0.4h3.3c1.6,0,1.6-1.1,0.8-2
	c-0.6-0.7-2.9-3.1-2.9-3.1c-0.5-0.5-0.5-1-0.2-1.5c0.8-1,1.9-2.6,2.4-3.2C22.4,7.4,23.7,5.4,22,5.4z"/>
</svg>
