<svg xmlns="http://www.w3.org/2000/svg" xmlns:xlink="http://www.w3.org/1999/xlink" x="0px" y="0px"
	 viewBox="0 0 23 23">
<path d="M21.6,5.6h-3.6c-0.3,0-0.5,0.2-0.7,0.5c0,0-1.5,2.7-1.9,3.6c-1.2,2.5-2,1.6-2,0.5V6.3c0-0.6-0.5-1.2-1.2-1.2
	H9.5C8.8,5,8.1,5.3,7.6,6C7.6,6,9,5.8,9,7.6c0,0.5,0,1.8,0,2.9c0,0.5-0.4,0.8-0.7,0.8c-0.2,0-0.5-0.1-0.6-0.3c-1.1-1.6-2-3.3-2.7-5
	c0-0.3-0.3-0.5-0.6-0.5c-0.7,0-2.3,0-3.2,0c-0.3,0-0.5,0.3-0.5,0.5c0,0.1,0,0.1,0,0.2c1,2.8,5.2,11.5,10.1,11.5h2
	c0.5,0,0.8-0.4,0.8-0.8v-1.3c0-0.5,0.4-0.8,0.8-0.8c0.2,0,0.4,0.1,0.5,0.2l2.5,2.4c0.2,0.2,0.5,0.4,0.8,0.4h3.2
	c1.6,0,1.6-1.1,0.7-1.9c-0.5-0.6-2.7-2.9-2.7-2.9c-0.5-0.5-0.5-1-0.2-1.5c0.7-0.9,1.8-2.5,2.3-3.1C22,7.5,23.2,5.6,21.6,5.6z"/>
</svg>
