<svg xmlns="http://www.w3.org/2000/svg" xmlns:xlink="http://www.w3.org/1999/xlink" x="0px" y="0px"
	viewBox="0 0 36 36">
<g>
	<circle cx="18" cy="18" r="18" fill="#ffffff"/>
</g>
<path d="M29.1,11.6h-3.9c-0.3,0-0.6,0.2-0.8,0.5c0,0-1.6,2.9-2.1,3.9c-1.3,2.7-2.2,1.8-2.2,0.6v-4.2
	c0-0.7-0.6-1.3-1.3-1.3h-2.9c-0.8-0.2-1.6,0.2-2.1,0.9c0,0,1.5-0.2,1.5,1.8c0,0.5,0,2,0,3.2c0,0.5-0.4,0.9-0.8,0.9
	c-0.2,0-0.5-0.1-0.7-0.3c-1.2-1.7-2.2-3.6-3-5.5c0-0.3-0.3-0.5-0.7-0.5c-0.8,0-2.5,0-3.5,0c-0.3,0-0.6,0.3-0.6,0.6
	c0,0.1,0,0.1,0,0.2C7.1,15.5,11.7,25,17,25h2.2c0.5,0,0.9-0.4,0.9-0.9v-1.4c0-0.5,0.4-0.9,0.9-0.9c0.2,0,0.4,0.1,0.6,0.2l2.7,2.6
	c0.2,0.2,0.6,0.4,0.9,0.4h3.5c1.7,0,1.7-1.2,0.8-2.1c-0.6-0.7-3-3.2-3-3.2c-0.5-0.5-0.5-1.1-0.2-1.6c0.8-1,2-2.7,2.5-3.4
	C29.5,13.7,30.8,11.6,29.1,11.6z" fill="#f50049"/>
</svg>
